# xmcd
#
# Track frame offsets: 
#        187
#        17877
#        37960
#        56780
#        77300
#        98275
#        129397
#        149552
#        172130
#        185930
#
# Disc length: 2564 seconds
#
# Revision: 1
# Processed by: cddbd v1.5.2PL0 Copyright (c) Steve Scherf et al.
# Submitted via: ExactAudioCopy v1.0b3
#
DISCID=840a020a
DTITLE=MALTA - MALTA
DYEAR=1987
DGENRE=Fusion
TTITLE0=SHINY LADY
TTITLE1=AMONG THE CLOUDS
TTITLE2=DANCE AFTER DANCE
TTITLE3=IN YOUR DREAM
TTITLE4=BRIGHT SILVER MOON
TTITLE5=NIGHT MAGIC
TTITLE6=EVENING CALM
TTITLE7=WHAT'S UP
TTITLE8=CRYSTAL RAINDROPS
TTITLE9=BE MINE
EXTD=
EXTT0=
EXTT1=
EXTT2=
EXTT3=
EXTT4=
EXTT5=
EXTT6=
EXTT7=
EXTT8=
EXTT9=
PLAYORDER=
